<?xml version="1.0" encoding="utf-8"?>
<!-- Generator: Adobe Illustrator 16.0.0, SVG Export Plug-In . SVG Version: 6.00 Build 0)  -->
<!DOCTYPE svg PUBLIC "-//W3C//DTD SVG 1.1//EN" "http://www.w3.org/Graphics/SVG/1.1/DTD/svg11.dtd">
<svg version="1.1" id="Layer_1" xmlns="http://www.w3.org/2000/svg" xmlns:xlink="http://www.w3.org/1999/xlink" x="0px" y="0px"
	 width="960px" height="560px" viewBox="0 0 960 560" enable-background="new 0 0 960 560" xml:space="preserve">
<g>
	<path fill-rule="evenodd" clip-rule="evenodd" d="M285.658,116.441c8.891-0.232,17.213,1.781,24.75,6.601
		c10.281,6.574,16.684,15.923,19.297,27.805c1.711,7.787,0.563,15.313-2.371,22.688c-3.395,8.534-7.576,16.664-12.527,24.362
		c-6.037,9.388-12.305,18.63-18.633,27.826c-4.391,6.382-12.812,6.242-17.397-0.047c-4.731-6.487-9.316-13.07-13.659-19.812
		c-2.916-4.525-5.721-9.121-8.387-13.807c-4.313-7.581-8.251-15.338-10.748-23.766c-1.512-5.104-1.801-10.224-0.957-15.431
		c1.725-10.646,6.695-19.505,14.953-26.431c6.275-5.263,13.49-8.535,21.673-9.534C282.978,116.736,284.306,116.595,285.658,116.441z
		 M287.598,140.767c-9.65-0.214-17.361,7.665-17.898,16.51c-0.676,11.141,7.972,18.618,16.581,19.152
		c11.126,0.691,19.087-8.494,19.118-17.668C305.432,149.054,297.455,140.632,287.598,140.767z"/>
	<path fill-rule="evenodd" clip-rule="evenodd" d="M358.738,223.805c-3.111-4.923-7.793-7.932-12.822-10.445
		c-7.506-3.753-15.566-5.827-23.752-7.456c-0.369-0.073-1,0.196-1.223,0.509c-1.051,1.475-2.004,3.02-2.988,4.541
		c-1.328,2.055-2.654,4.111-4.037,6.254c0.461,0.132,0.73,0.228,1.006,0.284c3.82,0.781,7.676,1.413,11.451,2.365
		c6.709,1.693,13.281,3.783,18.986,7.92c3.902,2.83,3.986,5.147-0.088,7.776c-2.898,1.869-5.988,3.546-9.188,4.821
		c-9.045,3.603-18.57,5.356-28.197,6.384c-5.791,0.618-11.639,0.844-17.466,0.934c-5.78,0.088-11.584,0.023-17.343-0.416
		c-5.744-0.439-11.481-1.23-17.157-2.225c-7.318-1.283-14.523-3.138-21.182-6.554c-2.39-1.226-4.653-2.795-6.725-4.509
		c-1.818-1.503-1.737-3.152-0.014-4.756c1.246-1.159,2.634-2.22,4.104-3.072c6.671-3.865,14.02-5.849,21.474-7.486
		c0.607-0.133,1.229-0.24,1.844-0.359l5.111,9.088l5.592-19.984L244.559,199l4.372,7.772c-2.191,0.489-4.379,0.994-6.535,1.606
		c-7.78,2.211-15.271,5.099-21.611,10.327c-2.924,2.412-5.239,5.319-6.246,9.048c-1.707,6.316,0.527,11.445,5.08,15.732
		c4.738,4.461,10.495,7.194,16.539,9.378c8.543,3.087,17.38,4.867,26.366,6.069c8.405,1.125,16.847,1.689,25.307,1.64
		c10.178-0.061,20.32-0.759,30.385-2.489c7.617-1.31,15.111-3.027,22.318-5.829c6.086-2.365,11.793-5.376,16.346-10.236
		C361.627,236.953,362.391,229.583,358.738,223.805z"/>
</g>
</svg>
